<svg width="120" height="147" viewBox="0 0 120 147" fill="none" xmlns="http://www.w3.org/2000/svg">
<path d="M15.7228 46.1596C11.6023 36.6831 16.2887 25.6908 25.9791 22.1023L63.0104 8.38918C70.1628 5.74059 78.1383 9.1408 81.1796 16.1352V16.1352C84.9075 24.7089 79.5856 34.5033 70.3637 36.0405L33.068 42.2574C24.0493 43.7608 18.8447 53.3394 22.4905 61.7242V61.7242L15.7228 46.1596Z" fill="#8500A6"/>
<path d="M33.6382 87.3619C29.1089 76.9452 35.2417 64.9888 46.3445 62.5903L75.7872 56.2299C82.969 54.6784 89.773 60.0903 89.8771 67.437V67.437C89.963 73.4935 85.3875 78.6027 79.3582 79.1828L49.9778 82.0097C41.1343 82.8605 35.6954 92.0932 39.238 100.241V100.241L33.6382 87.3619Z" fill="#8500A6"/>
<rect x="44.0229" y="111.245" width="24" height="24" rx="12" transform="rotate(-23.5 44.0229 111.245)" fill="#8500A6"/>
<path d="M103.899 46.167C108.019 36.6905 103.333 25.6982 93.6422 22.1097L56.6109 8.39656C49.4586 5.74797 41.483 9.14819 38.4417 16.1426V16.1426C34.7138 24.7163 40.0357 34.5107 49.2576 36.0479L86.5533 42.2648C95.572 43.7682 100.777 53.3468 97.1309 61.7315V61.7315L103.899 46.167Z" fill="#8500A6"/>
<path d="M85.9832 87.3693C90.5125 76.9526 84.3796 64.9961 73.2769 62.5977L43.8341 56.2373C36.6523 54.6858 29.8484 60.0977 29.7442 67.4444V67.4444C29.6584 73.5009 34.2339 78.6101 40.2632 79.1902L69.6435 82.017C78.487 82.8679 83.9259 92.1006 80.3833 100.248V100.248L85.9832 87.3693Z" fill="#8500A6"/>
<rect width="24" height="24" rx="12" transform="matrix(-0.91706 -0.398749 -0.398749 0.91706 75.5984 111.253)" fill="#8500A6"/>
<path d="M70.4998 123L59.805 146.443L49.1499 123H70.4998Z" fill="#8500A6"/>
</svg>
